<svg xmlns="http://www.w3.org/2000/svg" xmlns:svg="http://www.w3.org/2000/svg" xmlns:xlink="http://www.w3.org/1999/xlink" id="svg2314" width="167.241" height="159.25" version="1.0"><defs id="defs2316"><linearGradient id="linearGradient3293"><stop id="stop3295" offset="0" stop-color="#1221c8" stop-opacity="1"/><stop id="stop3297" offset="1" stop-color="#1221c8" stop-opacity=".471"/></linearGradient><radialGradient id="radialGradient3301" cx="267.857" cy="172.719" r="72.643" fx="267.857" fy="172.719" gradientTransform="matrix(1,0,0,1.0737462,-6,-12.737396)" gradientUnits="userSpaceOnUse" xlink:href="#linearGradient3293"/><pattern id="pattern3217" width="7.321" height="7.321" patternTransform="translate(2.8868, 82.8301)" patternUnits="userSpaceOnUse"><g id="g3213" transform="matrix(0.559077, 0, 0, 0.559077, -1.61394, -46.3084)"><path id="path3209" fill="#b3b3b3" fill-opacity="1" fill-rule="evenodd" stroke="#000" stroke-dasharray="none" stroke-dashoffset="0" stroke-linecap="round" stroke-linejoin="round" stroke-miterlimit="4" stroke-opacity="1" stroke-width="0" marker-end="none" marker-mid="none" marker-start="none" d="M 9.3396471,86.056496 A 3.2264235,3.2264235 0 0 1 6.1132236,89.282919 3.2264235,3.2264235 0 0 1 2.8868001,86.056496 3.2264235,3.2264235 0 0 1 6.1132236,82.830072 3.2264235,3.2264235 0 0 1 9.3396471,86.056496 Z" display="inline" enable-background="accumulate" opacity="1" overflow="visible" visibility="visible" style="marker:none"/><path id="path3211" fill="#b3b3b3" fill-opacity="1" fill-rule="evenodd" stroke="#000" stroke-dasharray="none" stroke-dashoffset="0" stroke-linecap="round" stroke-linejoin="round" stroke-miterlimit="4" stroke-opacity="1" stroke-width="0" marker-end="none" marker-mid="none" marker-start="none" d="M 9.3396471,86.056496 A 3.2264235,3.2264235 0 0 1 6.1132236,89.282919 3.2264235,3.2264235 0 0 1 2.8868001,86.056496 3.2264235,3.2264235 0 0 1 6.1132236,82.830072 3.2264235,3.2264235 0 0 1 9.3396471,86.056496 Z" display="inline" enable-background="accumulate" opacity="1" overflow="visible" transform="translate(6.64151, 6.64151)" visibility="visible" style="marker:none"/></g></pattern><pattern id="pattern3185" width="11.504" height="11.844" patternTransform="translate(15.7386, 78.5309)" patternUnits="userSpaceOnUse"><g id="g3181" transform="translate(-15.7386, -78.5309)"><rect id="rect3047" width="5.434" height="5.434" x="-47.118" y="68.1" fill="gray" fill-opacity="1" fill-rule="evenodd" stroke="#000" stroke-dasharray="none" stroke-dashoffset="0" stroke-linecap="round" stroke-linejoin="round" stroke-miterlimit="4" stroke-opacity="1" stroke-width="0" marker-end="none" marker-mid="none" marker-start="none" display="inline" enable-background="accumulate" overflow="visible" ry="2.182" transform="matrix(0.707107, -0.707107, 0.707107, 0.707107, 0, 0)" visibility="visible" style="marker:none"/><rect id="rect3087" width="5.434" height="5.434" x="-47.358" y="76.292" fill="gray" fill-opacity="1" fill-rule="evenodd" stroke="#000" stroke-dasharray="none" stroke-dashoffset="0" stroke-linecap="round" stroke-linejoin="round" stroke-miterlimit="4" stroke-opacity="1" stroke-width="0" marker-end="none" marker-mid="none" marker-start="none" display="inline" enable-background="accumulate" overflow="visible" ry="2.182" transform="matrix(0.707107, -0.707107, 0.707107, 0.707107, 0, 0)" visibility="visible" style="marker:none"/></g></pattern><linearGradient id="linearGradient6189" x1="37.971" x2="62.895" y1="-88.066" y2="-141.813" gradientTransform="rotate(-45,50.432588,-114.9395)" gradientUnits="userSpaceOnUse" xlink:href="#linearGradient3293-0"/><linearGradient id="linearGradient3293-0"><stop id="stop4540" offset="0" stop-color="#4a74f1" stop-opacity="1"/><stop id="stop4542" offset="1" stop-color="#e0e8ff" stop-opacity="1"/></linearGradient><linearGradient id="linearGradient6187" x1="37.971" x2="62.895" y1="-88.066" y2="-141.813" gradientTransform="rotate(-45,50.930117,-116.53535)" gradientUnits="userSpaceOnUse" xlink:href="#linearGradient3293-0"/><filter id="filter6112" width="1.071" height="1.071" x="-.035" y="-.035" color-interpolation-filters="sRGB"><feGaussianBlur id="feGaussianBlur6114" stdDeviation=".073"/></filter><filter id="filter6100" width="1.071" height="1.071" x="-.035" y="-.035" color-interpolation-filters="sRGB"><feGaussianBlur id="feGaussianBlur6102" stdDeviation=".073"/></filter><filter id="filter6108" width="1.071" height="1.071" x="-.035" y="-.035" color-interpolation-filters="sRGB"><feGaussianBlur id="feGaussianBlur6110" stdDeviation=".073"/></filter><filter id="filter6104" width="1.071" height="1.071" x="-.035" y="-.035" color-interpolation-filters="sRGB"><feGaussianBlur id="feGaussianBlur6106" stdDeviation=".073"/></filter><linearGradient id="linearGradient4629" x1="-13.8" x2="-13.8" y1="-61.19" y2="-60.135" gradientTransform="translate(-47.82878,37.745828)" gradientUnits="userSpaceOnUse" xlink:href="#linearGradient4577"/><linearGradient id="linearGradient4577"><stop id="stop4573" offset="0" stop-color="#000" stop-opacity="1"/><stop id="stop4575" offset="1" stop-color="#000" stop-opacity="0"/></linearGradient><linearGradient id="linearGradient4579-1" x1="-13.8" x2="-13.8" y1="-61.19" y2="-60.135" gradientTransform="translate(76.110699,106.11545)" gradientUnits="userSpaceOnUse" xlink:href="#linearGradient4577"/></defs><metadata id="metadata2319"/><g id="layer1" transform="translate(-185.08578,-92.359678)"><g id="g4588"><path id="path2322" fill="url(#radialGradient3301)" fill-opacity="1" fill-rule="evenodd" stroke="#353589" stroke-dasharray="none" stroke-linecap="butt" stroke-linejoin="miter" stroke-miterlimit="4" stroke-opacity="1" stroke-width="2.473" d="m 204.33416,94.955628 c 0.4756,9.395222 -3.96475,10.258072 -14.88358,8.782062 l 59.5343,46.45991 -2.41357,70.25645 c -10.94416,0.15404 -12.67983,-2.038 -27.20172,-17.37377 6.16299,23.89447 15.86966,34.33607 33.09647,47.0456 22.22945,-13.27638 33.97123,-26.24486 39.80785,-45.31507 -14.96778,12.56044 -14.925,19.39236 -32.0258,16.20983 l 1.60904,-48.15967 72.40655,-37.39457 c -7.20427,-1.7787 -12.89885,0.3692 -10.63919,-9.24392 l -59.35382,31.9073 v -17.56411 z"/><g id="g4544" transform="matrix(0.857475,-0.857475,0.857475,0.857475,342.50185,217.61011)"><g id="g5293" transform="translate(-16.349249,53.010053)"><path id="rect5267-1" fill="url(#linearGradient6189)" fill-opacity="1" stroke="#000" stroke-dasharray="none" stroke-linejoin="round" stroke-miterlimit="4" stroke-opacity="1" stroke-width="1.837" d="m 60.622994,-87.125088 -2e-6,-55.628832 H 40.242187 l 8e-6,55.628829 z" opacity="1" paint-order="stroke markers fill"/><path id="rect5267" fill="url(#linearGradient6187)" fill-opacity="1" stroke="#000" stroke-dasharray="none" stroke-dashoffset="0" stroke-linecap="butt" stroke-linejoin="round" stroke-miterlimit="4" stroke-opacity="1" stroke-width="1.837" d="M 78.246999,-125.12991 H 61.280051 l -1.035003,-0.20294 h -19.27946 l -1.177062,0.20294 H 22.61817 l -3e-6,20.3808 H 39.80882 l 0.730591,0.20294 h 20.070933 l 0.872649,-0.20294 h 16.763999 z" opacity="1" paint-order="stroke markers fill"/></g><rect id="rect5994" width="21.703" height="21.395" x="-72.852" y="-44.882" fill="#000" fill-opacity="1" stroke="none" stroke-dasharray="none" stroke-linecap="round" stroke-linejoin="miter" stroke-miterlimit="1" stroke-opacity="1" stroke-width="1.211" opacity=".2" paint-order="stroke markers fill" ry="0" transform="rotate(90)"/><circle id="path6007" cx="40.526" cy="-68.039" r="2.476" fill="#fff" fill-opacity="1" stroke="none" stroke-dasharray="none" stroke-linecap="round" stroke-linejoin="miter" stroke-miterlimit="1" stroke-opacity="1" stroke-width="1.135" filter="url(#filter6112)" opacity=".9" paint-order="stroke markers fill" transform="rotate(45,38.861531,-69.477635)"/><circle id="path6007-6" cx="47.774" cy="-60.791" r="2.476" fill="#fff" fill-opacity="1" stroke="none" stroke-dasharray="none" stroke-linecap="round" stroke-linejoin="miter" stroke-miterlimit="1" stroke-opacity="1" stroke-width="1.135" filter="url(#filter6100)" opacity=".9" paint-order="stroke markers fill" transform="rotate(45,38.861531,-69.477635)"/><circle id="path6007-7" cx="34.194" cy="-61.707" r="2.476" fill="#fff" fill-opacity="1" stroke="none" stroke-dasharray="none" stroke-linecap="round" stroke-linejoin="miter" stroke-miterlimit="1" stroke-opacity="1" stroke-width="1.135" filter="url(#filter6108)" opacity=".9" paint-order="stroke markers fill" transform="rotate(45,38.861531,-69.477635)"/><circle id="path6007-4" cx="41.442" cy="-54.459" r="2.476" fill="#fff" fill-opacity="1" stroke="none" stroke-dasharray="none" stroke-linecap="round" stroke-linejoin="miter" stroke-miterlimit="1" stroke-opacity="1" stroke-width="1.135" filter="url(#filter6104)" opacity=".9" paint-order="stroke markers fill" transform="rotate(45,38.861531,-69.477635)"/><rect id="rect5994-5" width="20.668" height="1.141" x="-72.304" y="-23.487" fill="url(#linearGradient4629)" fill-opacity="1" stroke="none" stroke-dasharray="none" stroke-linecap="round" stroke-linejoin="miter" stroke-miterlimit="1" stroke-opacity="1" stroke-width=".273" opacity=".2" paint-order="stroke markers fill" ry="0" transform="rotate(90)"/><rect id="rect5994-5-1" width="20.668" height="1.141" x="51.636" y="44.882" fill="url(#linearGradient4579-1)" fill-opacity="1" stroke="none" stroke-dasharray="none" stroke-linecap="round" stroke-linejoin="miter" stroke-miterlimit="1" stroke-opacity="1" stroke-width=".273" opacity=".2" paint-order="stroke markers fill" ry="0" transform="rotate(-90)"/></g></g></g></svg>